<?xml version="1.0" encoding="UTF-8" standalone="no"?>
<!-- Created with Inkscape (http://www.inkscape.org/) -->

<svg
   width="24"
   height="24"
   viewBox="0 0 6.34992 6.34992"
   version="1.1"
   id="svg5"
   sodipodi:docname="edit16b.svg"
   inkscape:version="1.2.1 (9c6d41e4, 2022-07-14)"
   xmlns:inkscape="http://www.inkscape.org/namespaces/inkscape"
   xmlns:sodipodi="http://sodipodi.sourceforge.net/DTD/sodipodi-0.dtd"
   xmlns="http://www.w3.org/2000/svg"
   xmlns:svg="http://www.w3.org/2000/svg">
  <sodipodi:namedview
     id="namedview19"
     pagecolor="#ffffff"
     bordercolor="#000000"
     borderopacity="0.25"
     inkscape:showpageshadow="2"
     inkscape:pageopacity="0.0"
     inkscape:pagecheckerboard="0"
     inkscape:deskcolor="#d1d1d1"
     showgrid="false"
     inkscape:zoom="9.8333333"
     inkscape:cx="12.508475"
     inkscape:cy="12.813559"
     inkscape:window-width="1470"
     inkscape:window-height="804"
     inkscape:window-x="0"
     inkscape:window-y="37"
     inkscape:window-maximized="0"
     inkscape:current-layer="svg5" />
  <defs
     id="defs2">
    <linearGradient
       id="linearGradient3576">
      <stop
         style="stop-color:#ffffff;stop-opacity:1;"
         offset="0"
         id="stop3574" />
    </linearGradient>
    <linearGradient
       id="linearGradient2929">
      <stop
         style="stop-color:#800000;stop-opacity:1;"
         offset="0"
         id="stop2927" />
    </linearGradient>
  </defs>
  <g
     id="layer1"
     style="opacity:1;fill:#333333"
     transform="matrix(0.94247472,0,0,0.97012839,0.00537432,0.1856854)">
    <path
       style="display:none;fill:#333333;fill-rule:nonzero;stroke:#000000;stroke-width:0.26458;stroke-linecap:butt;stroke-linejoin:miter;stroke-miterlimit:4;stroke-dasharray:0, 2.91038;stroke-dashoffset:0;stroke-opacity:1"
       d="M 3.0785646,8.0914831 V 3.2086907 c 0,0 -1.9193756,1.7117075 -1.7221888,1.1063751 C 2.3300845,1.3259341 4.6307963,0.24183139 4.3069167,0.56125893 3.9322179,0.24353466 5.9916784,1.1145714 7.4366812,4.3533115 7.7141662,4.9752493 5.5365236,3.1193705 5.5365236,3.1193705 l 0.062828,4.9211184 z"
       id="path1132" />
    <rect
       style="display:none;fill:#333333;fill-rule:evenodd;stroke-width:0.26458"
       id="rect3694"
       width="6.033534"
       height="1.3563758"
       x="1.2160609"
       y="3.6481831"
       ry="0.37417263" />
    <path
       d="M 3.3528713,4.6398276 3.7786548,4.120368 3.2207316,3.4396979 2.794948,3.9591577 V 4.2099303 H 3.1473207 V 4.6398276 Z M 4.9679122,1.4156006 Q 4.9091754,1.3439464 4.8467836,1.420037 L 3.5620925,2.9873721 q -0.062399,0.076133 -0.00367,0.1477674 0.058729,0.071654 0.1211288,-0.00443 L 4.9642428,1.5633679 q 0.062392,-0.076133 0.00374,-0.1477673 z m 0.2936442,2.6599871 v 0.8508376 q 0,0.5328926 -0.3101624,0.9112922 -0.3101606,0.3783978 -0.7469551,0.3783978 h -3.053896 q -0.43679501,0 -0.74695623,-0.3783978 Q 0.09342546,5.4593179 0.09342546,4.9264253 V 1.2006529 q 0,-0.53289261 0.31016121,-0.91129236 0.31016122,-0.37839772 0.74695623,-0.37839772 h 3.053896 q 0.2312443,0 0.429454,0.11195039 0.05505,0.0313373 0.066063,0.10299123 0.011042,0.0761335 -0.03304,0.12986899 L 4.4870591,0.47520069 q -0.051379,0.0626947 -0.1174578,0.0358169 -0.084418,-0.0268778 -0.1651734,-0.0268778 h -3.053885 q -0.24225596,0 -0.4147719,0.21047007 Q 0.56325553,0.90507989 0.56325553,1.2006347 v 3.7257724 q 0,0.2955527 0.17251547,0.5060248 0.17251594,0.2104701 0.4147719,0.2104701 h 3.053896 q 0.2422559,0 0.4147713,-0.2104701 Q 4.7917257,5.2219598 4.7917257,4.9264071 V 4.3621672 q 0,-0.058216 0.03304,-0.098511 L 5.0596804,3.9770581 q 0.05505,-0.067173 0.1284708,-0.031357 0.073406,0.035816 0.073406,0.1298687 z M 4.9091834,0.7707555 5.966301,2.0604454 3.4996932,5.069723 H 2.4425755 V 3.780033 Z M 6.5389067,1.3618651 6.2012163,1.7738479 5.1440988,0.48415794 5.4817892,0.07217306 q 0.1027742,-0.12538927 0.2495964,-0.12538927 0.146826,0 0.2495979,0.12538927 l 0.5579232,0.68066996 q 0.1027731,0.12538941 0.1027731,0.30451008 0,0.1791247 -0.1027731,0.304512 z"
       id="path276"
       style="fill:#333333;stroke-width:0.00405425" />
  </g>
</svg>
